<svg width="64" height="64" viewBox="0 0 64 64" xmlns="http://www.w3.org/2000/svg" xmlns:xlink="http://www.w3.org/1999/xlink"><title>icon</title><defs><rect id="a" width="60" height="60" rx="5"/></defs><g fill="none" fill-rule="evenodd"><g transform="translate(2 2)"><use fill-opacity=".1" fill="#5D62CF" xlink:href="#a"/><rect stroke="#8488DA" stroke-width="2" x="-1" y="-1" width="62" height="62" rx="5"/></g><path d="M44.773 44.754V24.316H20.227v20.438h24.546zm0 4.09H20.227c-2.26 0-4.09-1.83-4.09-4.09v-20.44c0-2.26 1.83-4.09 4.09-4.09h24.546c2.26 0 4.09 1.83 4.09 4.09v20.44c0 2.26-1.83 4.09-4.09 4.09zm-18.41-14.308h2.046c1.13 0 2.045-.916 2.045-2.045 0-1.13-.916-2.045-2.046-2.045h-2.046c-1.13 0-2.046.916-2.046 2.046s.916 2.046 2.046 2.046zm10.228 0h2.046c1.13 0 2.046-.916 2.046-2.045 0-1.13-.916-2.045-2.046-2.045H36.59c-1.13 0-2.045.916-2.045 2.046s.916 2.046 2.046 2.046zm-10.226 6.132h2.045c1.13 0 2.045-.915 2.045-2.045s-.916-2.045-2.046-2.045h-2.046c-1.13 0-2.046.915-2.046 2.045s.916 2.045 2.046 2.045zm10.227 0c-1.13 0-2.045-.915-2.045-2.045s.916-2.045 2.046-2.045h2.046c1.13 0 2.046.915 2.046 2.045s-.916 2.045-2.046 2.045H36.59zm-10.226-14.31c0 1.13-.916 2.046-2.046 2.046s-2.045-.916-2.045-2.046v-8.176c0-1.13.916-2.046 2.045-2.046 1.13 0 2.046.916 2.046 2.046v8.176zm16.363 0c0 1.13-.916 2.046-2.045 2.046-1.13 0-2.046-.916-2.046-2.046v-8.176c0-1.13.916-2.046 2.046-2.046s2.045.916 2.045 2.046v8.176z" fill-rule="nonzero" fill="#8488DA"/></g></svg>