<svg width="64" height="64" viewBox="0 0 64 64" xmlns="http://www.w3.org/2000/svg" xmlns:xlink="http://www.w3.org/1999/xlink"><title>icon</title><defs><rect id="a" width="60" height="60" rx="5"/></defs><g fill="none" fill-rule="evenodd"><g transform="translate(2 2)"><use fill-opacity=".1" fill="#F64F7A" xlink:href="#a"/><rect stroke="#F64F7A" stroke-width="2" x="-1" y="-1" width="62" height="62" rx="5"/></g><path d="M34.545 44.754c1.667 0 4.09-1.433 4.09-2.043V30.448H20.228v12.264c0 1.128.917 2.044 2.046 2.044h12.272zm0 4.09H22.273c-3.388 0-6.137-2.746-6.137-6.133V30.448c0-2.26 1.833-4.09 4.09-4.09h18.41c2.26 0 4.09 1.83 4.09 4.09V42.71c0 3.444-4.55 6.135-8.18 6.135zM44.773 36.58V32.49l-2.046.002v4.086h2.046zm0 4.09h-4.09c-1.13 0-2.047-.915-2.047-2.045v-8.176c0-1.13.916-2.046 2.046-2.046h4.09c2.26 0 4.092 1.832 4.092 4.09v4.09c0 2.257-1.833 4.088-4.09 4.088zM30.455 18.182v4.088c0 1.13.915 2.046 2.045 2.046s2.045-.916 2.045-2.046v-4.088c0-1.13-.915-2.046-2.045-2.046s-2.045.916-2.045 2.046zm-6.137 2.044v2.044c0 1.13.916 2.046 2.046 2.046s2.045-.916 2.045-2.046v-2.044c0-1.13-.917-2.046-2.046-2.046-1.13 0-2.046.916-2.046 2.046z" fill="#F64F7A" fill-rule="nonzero"/></g></svg>