<svg width="64" height="64" viewBox="0 0 64 64" xmlns="http://www.w3.org/2000/svg" xmlns:xlink="http://www.w3.org/1999/xlink"><title>icon</title><defs><rect id="a" width="60" height="60" rx="5"/><path d="M34.773 22.49c0-6.772-5.495-12.263-12.273-12.263s-12.273 5.49-12.273 12.264c0 6.773 5.495 12.264 12.273 12.264s12.273-5.49 12.273-12.263zm4.09 0c0 9.033-7.326 16.355-16.363 16.355-9.037 0-16.364-7.322-16.364-16.354S13.463 6.137 22.5 6.137s16.364 7.322 16.364 16.355zm-24.33 5.004c.347.692.975 1.633 1.92 2.576 1.632 1.63 3.655 2.643 6.047 2.643s4.415-1.012 6.048-2.643c.944-.943 1.572-1.884 1.918-2.576.505-1.01.096-2.24-.914-2.744-1.01-.506-2.24-.097-2.745.914-.165.33-.56.922-1.15 1.512-.925.924-1.97 1.446-3.157 1.446-1.188 0-2.232-.522-3.156-1.446-.59-.59-.986-1.182-1.15-1.512-.507-1.01-1.735-1.42-2.746-.914-1.01.505-1.42 1.734-.914 2.744zm5.922-9.092c0 1.13-.917 2.045-2.046 2.045-1.13 0-2.046-.916-2.046-2.045 0-1.128.916-2.044 2.045-2.044 1.128 0 2.045.916 2.045 2.044m8.18 0c0 1.13-.915 2.045-2.044 2.045-1.128 0-2.045-.916-2.045-2.045 0-1.128.917-2.044 2.046-2.044 1.13 0 2.046.916 2.046 2.044" id="b"/></defs><g fill="none" fill-rule="evenodd"><g transform="translate(2 2)"><use fill-opacity=".1" fill="#29C56E" xlink:href="#a"/><rect stroke="#29C56E" stroke-width="2" x="-1" y="-1" width="62" height="62" rx="5"/></g><g transform="translate(10 10)"><mask id="c" fill="#fff"><use xlink:href="#b"/></mask><use fill="#ECEFF1" fill-rule="nonzero" xlink:href="#b"/><path d="M0 0h45v45H0z" mask="url(#c)" fill="#00CF63"/></g></g></svg>