<?xml version="1.0" encoding="UTF-8"?>
<svg width="150px" height="55px" viewBox="0 0 150 55" version="1.1" xmlns="http://www.w3.org/2000/svg" xmlns:xlink="http://www.w3.org/1999/xlink">
    <!-- Generator: Sketch 47.1 (45422) - http://www.bohemiancoding.com/sketch -->
    <title>Explorer</title>
    <desc>Created with Sketch.</desc>
    <defs></defs>
    <g id="Blog" stroke="none" stroke-width="1" fill="none" fill-rule="evenodd">
        <g id="blog_Large_1A_C" transform="translate(-92.000000, -4277.000000)" fill="#FFFFFF">
            <g id="Footer" transform="translate(0.000000, 4217.000000)">
                <g id="bg">
                    <g id="nav">
                        <g id="nav-left" transform="translate(92.000000, 60.000000)">
                            <path d="M1.06998279,7.38209198 C0.838634036,7.15074322 0.655485685,6.88084039 0.520532244,6.57237538 C0.385578802,6.26391037 0.279545546,5.97472876 0.202429294,5.70482188 C0.0867549161,5.39635687 0.0289185945,5.06861772 0.0289185945,4.72159458 C-0.00963953151,4.41312957 -0.00963953151,4.10466919 0.0289185945,3.79620418 C0.0674767206,3.56485543 0.106034268,3.32387075 0.144592394,3.07324294 C0.18315052,2.82261512 0.27954439,2.63946676 0.433776894,2.52379239 C0.742241902,2.44667613 1.09889922,2.37920043 1.50375954,2.32136324 C1.90861987,2.26352605 2.28455595,2.19605034 2.63157909,2.11893409 L3.90399089,1.88758649 C4.05822339,1.65623773 4.37632316,1.41525306 4.85829974,1.16462524 C5.34027631,0.913997419 5.8608032,0.69229152 6.41989603,0.49950089 C6.97898886,0.30671026 7.50915514,0.162119456 8.01041078,0.065724141 C8.51166642,-0.0306711742 8.85868435,-0.0210317872 9.05147498,0.0946425909 L9.05147498,1.30921749 C10.0539863,1.19354311 11.09504,1.08750985 12.1746676,0.991114539 C13.2542951,0.894719224 14.4110215,0.846522289 15.6448816,0.846522289 C17.1486485,0.807964163 18.555999,0.769406616 19.8669753,0.73084849 C20.9851609,0.692290364 22.1129692,0.682650977 23.2504339,0.70193004 C24.3878986,0.721209103 25.2650828,0.750127263 25.8820128,0.78868539 C26.1904779,0.827243516 26.4314625,1.04894941 26.6049741,1.45380974 C26.7784857,1.85867006 26.836322,2.36955757 26.7784848,2.98648759 C26.7206476,3.6034176 26.5182205,4.27817469 26.1711973,5.01077908 C25.8241742,5.74338348 25.2843685,6.43741933 24.5517641,7.09290748 C23.6263691,6.90011685 22.6624304,6.74588666 21.6599192,6.63021228 C20.6574079,6.5145379 19.7320267,6.41814403 18.883748,6.34102778 C17.8812367,6.26391153 16.917298,6.24463275 15.991903,6.28319088 C14.7966011,6.28319088 13.6205959,6.31210904 12.4638521,6.36994623 C11.3071083,6.42778342 10.1889394,6.49525913 9.10931188,6.57237538 C9.14787,8.46172355 9.17678816,10.6113068 9.19606723,13.0211897 C9.21534629,15.4310726 9.24426445,17.8698375 9.28282258,20.3375576 L10.786582,20.2218838 C11.2878376,20.1833256 11.8083645,20.1447681 12.3481783,20.10621 C13.7362708,20.0290937 15.0954244,19.9519786 16.4256797,19.8748624 C17.7559351,19.7977461 18.9126615,19.8266643 19.8958937,19.9616177 C20.8791259,20.0965711 21.6213587,20.3953921 22.1226144,20.8580897 C22.62387,21.3207872 22.7395426,22.0533806 22.4696358,23.0558918 L21.6599192,25.832063 C21.5828029,25.6392724 21.3803758,25.4754028 21.0526317,25.3404494 C20.7248876,25.205496 20.3489515,25.0994627 19.9248122,25.0223464 C19.4621146,24.9066721 18.9415877,24.8102782 18.3632159,24.7331619 C17.0136814,24.5789294 15.5292159,24.5596507 13.9097746,24.675325 C12.2903333,24.7909994 10.7480314,24.9645084 9.28282258,25.1958571 L9.28282258,25.253694 C9.3213807,28.6468091 9.31174132,31.4615101 9.25390413,33.6978814 C9.19606694,35.9342527 9.12859123,37.6693424 9.05147498,38.9032024 C9.55273062,38.8260862 10.0443393,38.7682498 10.5263159,38.7296917 C11.0082925,38.6911336 11.51918,38.6332973 12.0589938,38.556181 C13.4470863,38.4405066 14.8929943,38.3633915 16.3967613,38.3248334 C17.6691794,38.2862753 19.0861693,38.2766359 20.6477734,38.295915 C22.2093775,38.315194 23.7227613,38.4212273 25.18797,38.6140179 C25.4193188,38.9995992 25.4964339,39.5008473 25.4193176,40.1177773 C25.3422014,40.7347073 25.20725,41.3323493 25.0144593,41.9107212 C24.7831106,42.6047675 24.493929,43.3373609 24.1469058,44.1085234 C22.4117902,43.9157328 20.7345369,43.7807814 19.1150956,43.7036651 C17.4956543,43.6265489 16.0497462,43.5687125 14.7773281,43.5301544 C13.2735611,43.4915963 11.8662107,43.4915963 10.5552344,43.5301544 C8.16463056,43.4530382 6.27531072,43.5783502 4.88721818,43.9060943 C3.49912565,44.2338383 2.51590818,44.474823 1.93753629,44.6290555 C1.55195503,44.7447299 1.26277342,44.6868936 1.06998279,44.4555448 C0.877192162,44.224196 0.66512565,43.84826 0.433776894,43.3277253 C0.202428137,42.8071906 0.125313042,42.0842365 0.202429294,41.1588415 C0.202429294,41.0817253 0.221708068,40.975692 0.260266194,40.8407386 C0.29882432,40.7057851 0.414496963,40.5997519 0.607287593,40.5226356 C0.83863635,40.4455194 1.20493305,40.3491255 1.70618869,40.2334511 C2.20744433,40.1177767 2.82436509,39.9828253 3.55696949,39.8285928 C3.63408574,38.2477096 3.69192206,36.2427172 3.73048019,33.8135552 C3.76903831,31.3843933 3.82687463,28.9167102 3.90399089,26.410432 C3.24850274,26.2947577 2.67013953,25.7645914 2.16888389,24.8199173 C1.66762825,23.8752432 1.43628297,22.82455 1.47484109,21.6678062 C1.70618985,21.59069 1.96645329,21.5328537 2.25563924,21.4942955 C2.54482519,21.4557374 2.82436741,21.3979011 3.09427429,21.3207848 C3.4027393,21.2436686 3.71119968,21.1858323 4.01966469,21.1472741 C4.05822281,20.1447629 4.07750159,19.2386605 4.07750159,18.4289399 C4.07750159,17.6192192 4.09678036,16.9059046 4.13533849,16.2889746 C4.21245474,14.6695333 4.23173351,13.0597556 4.19317539,11.4595934 C4.15461726,9.85943119 4.11605971,8.38460499 4.07750159,7.03507058 C3.73047845,7.0736287 3.36418175,7.11218625 2.97860049,7.15074438 C2.67013548,7.1893025 2.34239633,7.22786005 1.99537319,7.26641818 C1.64835006,7.3049763 1.33988967,7.34353385 1.06998279,7.38209198 Z M30.6246386,41.0431677 C30.123383,40.6575865 29.7185287,40.3105685 29.4100637,40.0021035 C29.1015987,39.6936385 28.8509747,39.4237357 28.658184,39.1923869 C28.4268353,38.92248 28.2533263,38.671856 28.1376519,38.4405072 C27.8291869,37.9006935 27.7327931,37.3223302 27.8484674,36.7054002 C27.9641418,36.0884702 28.1954871,35.3944343 28.5425102,34.6232718 C28.8509752,33.9677837 29.3618628,33.0424025 30.0751881,31.8471006 C30.7885134,30.6517987 31.6271401,29.3408421 32.5910932,27.9141914 C32.0512795,27.0273545 31.492195,26.0826946 30.9138231,25.0801833 C30.3740094,24.1933464 29.7860068,23.161932 29.1497977,21.9859092 C28.5135886,20.8098864 27.8099134,19.5471267 27.0387508,18.1975923 C27.5400065,17.8505691 28.0123364,17.6095844 28.4557549,17.474631 C28.8991733,17.3396776 29.2943882,17.2722019 29.6414113,17.2722019 C30.0655507,17.2722019 30.4318474,17.3107594 30.7403124,17.3878757 C31.4343587,17.6963407 32.0609189,18.4578522 32.6200117,19.6724332 C33.1791045,20.8870142 33.9598948,22.4967918 34.9624061,24.5018143 C35.4636618,23.8077681 36.0227462,23.0558959 36.6396762,22.2461752 C37.17949,21.552129 37.7867714,20.7327811 38.4615386,19.788107 C39.1363058,18.8434329 39.8978173,17.8120185 40.7460961,16.6938329 C40.9774449,16.7709491 41.1991508,16.8287854 41.4112205,16.8673436 C41.6232902,16.9059017 41.8257173,16.963738 42.0185079,17.0408543 L42.5968769,17.2722019 C42.7511094,17.3493181 42.9053396,17.4649908 43.0595721,17.6192233 C43.2909209,17.850572 43.5608237,18.2168687 43.8692887,18.7181244 C42.8667774,20.0676588 41.9606751,21.3207791 41.1509544,22.4775228 C40.3412338,23.6342666 39.6279191,24.6367629 39.0109891,25.4850416 C38.3169428,26.4875529 37.6807433,27.3936553 37.1023714,28.2033759 L36.9866976,28.4347235 C37.0252557,28.4732817 37.0445345,28.5021998 37.0445345,28.5214789 C37.0445345,28.5407579 37.0638133,28.5696761 37.1023714,28.6082342 C37.6421852,29.4950711 38.2591059,30.4975674 38.9531522,31.615753 C39.5700822,32.5797062 40.3219544,33.7364326 41.2087913,35.085967 C42.0956282,36.4355014 43.1174032,37.9778033 44.274147,39.712919 C43.657217,39.9442678 43.1366901,40.098498 42.7125507,40.1756142 C42.481202,40.2141723 42.2691354,40.2334511 42.0763448,40.2334511 C41.8835542,40.2720092 41.6714877,40.2720092 41.4401389,40.2334511 L40.7171777,40.0888589 C40.4279917,40.0310217 40.1291707,39.9442672 39.8207057,39.8285928 C39.2037757,38.8646397 38.6061337,37.9103404 38.0277618,36.9656663 C37.4493899,36.0209922 36.928863,35.1630867 36.4661655,34.3919242 C35.9263518,33.5050873 35.4251036,32.6568213 34.9624061,31.8471006 C34.3840342,32.8496119 33.8249498,33.8713869 33.285136,34.9124563 C32.8224385,35.7992932 32.3404692,36.7921501 31.8392135,37.8910567 C31.3379579,38.9899633 30.9331036,40.0406564 30.6246386,41.0431677 Z M57.4031233,16.5781591 C58.4827508,16.5781591 59.4852471,16.8866194 60.4106421,17.5035495 C61.3360371,18.1204795 62.1264668,18.930188 62.781955,19.9326993 C63.4374431,20.9352105 63.95797,22.0822976 64.3435513,23.3739948 C64.7291325,24.665692 64.9219203,26.0055668 64.9219203,27.3936593 C64.9219203,28.7817519 64.7676901,30.2469387 64.4592251,31.7892637 C64.1507601,33.3315888 63.6687907,34.758218 63.0133026,36.0691943 C62.3578144,37.3801706 61.5095484,38.4694213 60.468479,39.3369792 C59.4274096,40.204537 58.1550105,40.6383094 56.6512436,40.6383094 C55.4559417,40.6383094 54.3281334,40.204537 53.2677849,39.3369792 C52.2074365,38.4694213 51.3880886,37.3801706 50.8097167,36.0691943 C50.7326004,37.4187287 50.5590915,38.7971611 50.2891846,40.2045327 C50.0192777,41.6119043 49.8843263,43.298797 49.8843263,45.2652614 C49.8843263,45.8436333 49.9036051,46.4991116 49.9421632,47.231716 C49.9807213,47.9643204 50.0385576,48.6969138 50.1156739,49.4295182 C50.1927901,50.1621226 50.3084628,50.8368797 50.4626953,51.4538097 C50.6169278,52.0707397 50.7904368,52.5527091 50.9832274,52.8997322 C50.3277393,53.2853134 49.7397366,53.5744951 49.2192019,53.7672857 C48.6986672,53.9600763 48.2456161,54.0950277 47.8600348,54.172144 C47.4358954,54.2878184 47.0310412,54.3456547 46.6454599,54.3456547 C46.1442043,54.3456547 45.8164651,54.1335882 45.6622326,53.7094488 C45.5080001,53.2853094 45.430885,52.5334372 45.430885,51.4538097 C45.430885,50.7597634 45.4598032,49.7669066 45.5176404,48.4752093 C45.5754775,47.1835121 45.6525926,45.7086859 45.748988,44.0506865 C45.8453833,42.3926871 45.9417771,40.6479581 46.0381725,38.8164471 C46.1345678,36.9849361 46.2309616,35.1823707 46.327357,33.4086969 C46.4237523,31.6350231 46.5008674,29.986688 46.5587046,28.463642 C46.6165417,26.940596 46.6454599,25.6585575 46.6454599,24.6174881 C46.6454599,23.34507 46.6261811,22.3522131 46.587623,21.6388878 C46.5490649,20.9255625 46.5008679,20.3857568 46.4430308,20.0194546 C46.3851936,19.6531524 46.3177179,19.392889 46.2406016,19.2386565 C46.1634854,19.0844239 46.0670915,18.910915 45.9514171,18.7181244 C46.2984402,18.4482175 46.7129339,18.2072328 47.1949105,17.9951631 C47.676887,17.7830934 48.1588564,17.6288632 48.6408329,17.5324679 C49.1228095,17.4360726 49.5662213,17.4071544 49.9710816,17.4457126 C50.375942,17.4842707 50.6940417,17.5806646 50.9253905,17.7348971 C51.1181811,17.9276877 51.2627719,18.2168693 51.3591672,18.6024506 C51.4555626,18.9880318 51.542317,19.566395 51.6194333,20.3375576 C52.3520377,19.3350463 53.1906644,18.4578621 54.1353384,17.7059786 C55.0800125,16.9540951 56.1692632,16.5781591 57.4031233,16.5781591 Z M55.1474842,37.2259323 C55.8415305,37.2259323 56.5066482,36.8981932 57.1428572,36.242705 C57.7790663,35.5872169 58.3381508,34.7485902 58.8201273,33.7267999 C59.3021039,32.7050095 59.6876794,31.5675619 59.9768653,30.3144228 C60.2660513,29.0612837 60.4106421,27.8178028 60.4106421,26.5839427 C60.4106421,25.2344083 60.28533,24.1258788 60.0347022,23.258321 C59.7840744,22.3907632 59.475614,21.6967273 59.1093118,21.1761926 C58.7430096,20.6556579 58.3574342,20.2893612 57.9525738,20.0772915 C57.5477135,19.8652218 57.1910562,19.7591886 56.8825912,19.7591886 C56.1499868,19.7591886 55.4559509,20.0580095 54.8004628,20.6556605 C54.1449746,21.2533115 53.5666114,22.0244624 53.0653558,22.9691365 C52.5641002,23.9138106 52.1688853,24.9645038 51.8796993,26.1212475 C51.5905134,27.2779913 51.4459226,28.4347178 51.4459226,29.5914615 C51.4459226,30.6710891 51.5519558,31.6735853 51.7640255,32.5989803 C51.9760952,33.5243754 52.2556375,34.3340839 52.6026606,35.0281301 C52.9496837,35.7221764 53.3448986,36.2619821 53.788317,36.6475633 C54.2317355,37.0331446 54.6847867,37.2259323 55.1474842,37.2259323 Z M75.7952574,2.00326029 C75.7181412,3.39135282 75.5831898,4.99149105 75.3903991,6.80372298 C75.1976085,8.6159549 74.9951814,10.5631111 74.7831117,12.6452499 C74.571042,14.7273887 74.3589755,16.9058901 74.1469058,19.1808196 C73.9348361,21.455749 73.7516878,23.7499231 73.5974553,26.0634106 C73.4432227,28.3768982 73.375747,30.2565787 73.3950261,31.7025084 C73.4143052,33.1484381 73.5010596,34.3340827 73.6552921,35.2594777 C73.8095247,36.1848727 74.0215912,36.9174662 74.291498,37.4572799 C74.5614049,37.9970937 74.9084229,38.5176206 75.3325622,39.0188762 C74.8313066,39.3273412 74.368616,39.5586865 73.9444766,39.712919 C73.5203373,39.8671515 73.1540406,39.9828242 72.8455756,40.0599404 C72.4599943,40.1756148 72.1129764,40.2334511 71.8045114,40.2334511 C71.2261395,40.2334511 70.7248913,39.9539089 70.300752,39.3948161 C69.8766126,38.8357232 69.539234,38.1127692 69.2886062,37.2259323 C69.0379784,36.3390954 68.8451907,35.3462386 68.7102372,34.247332 C68.5752838,33.1484254 68.5078081,32.0591747 68.5078081,30.9795471 C68.5078081,29.8228033 68.5463656,28.4829286 68.6234819,26.9598826 C68.7005981,25.4368366 68.7873526,23.8174196 68.8837479,22.101583 C68.9801432,20.3857464 69.0861765,18.5928204 69.2018509,16.7227513 C69.3175252,14.8526822 69.4139191,12.9922805 69.4910354,11.1414905 C69.5681516,9.71483981 69.6452667,8.42316196 69.722383,7.26641818 C69.7994992,6.2639069 69.8573355,5.34816514 69.8958937,4.51916543 C69.9344518,3.69016572 69.915173,3.19855699 69.8380568,3.04432449 C70.0694055,2.73585948 70.3585871,2.50451419 70.7056103,2.35028169 C71.0526334,2.19604918 71.3803725,2.06109777 71.6888376,1.94542339 C72.0744188,1.82974901 72.4599943,1.73335514 72.8455756,1.65623889 L73.9444766,1.65623889 C74.2529417,1.65623889 74.5806808,1.68515705 74.9277039,1.74299424 C75.2747271,1.80083143 75.5639087,1.88758591 75.7952574,2.00326029 Z M94.4765761,29.5336246 C94.3994599,31.0373915 94.1391964,32.4254633 93.695778,33.6978814 C93.2523595,34.9702996 92.6450781,36.0788291 91.8739156,37.0235032 C91.1027531,37.9681773 90.1870113,38.71041 89.1266629,39.2502238 C88.0663144,39.7900376 86.8999486,40.0792192 85.6275304,40.1177773 C84.5093448,40.1563354 83.4586516,39.8864326 82.4754194,39.3080607 C81.4921872,38.7296888 80.6342817,37.9199803 79.9016773,36.8789109 C79.1690729,35.8378415 78.6196279,34.5943606 78.2533257,33.1484309 C77.8870235,31.7025011 77.7809902,30.1312811 77.9352227,28.4347235 C78.0508971,26.4682591 78.4171938,24.7813664 79.0341238,23.3739948 C79.6510539,21.9666232 80.3065322,20.8002574 81.0005784,19.8748624 C81.6946247,18.9494673 82.3404636,18.2650709 82.9381146,17.8216524 C83.5357655,17.378234 83.9117016,17.1179705 84.0659341,17.0408543 C84.335841,16.9251799 84.5864651,16.8962617 84.8178138,16.9540989 C85.0491626,17.0119361 85.2997866,17.0794118 85.5696935,17.1565281 C85.6468098,17.1950862 85.7239249,17.2914801 85.8010411,17.4457126 C85.9552736,17.7156194 86.0516675,18.2168676 86.0902256,18.949472 C86.2830163,18.5253326 86.5336403,18.1783146 86.8421053,17.9084078 C87.1505703,17.6385009 87.4590307,17.4457131 87.7674957,17.3300388 C88.153077,17.1758063 88.5386525,17.0794124 88.9242337,17.0408543 C89.1941406,17.0022961 89.6664706,17.2143626 90.3412378,17.6770602 C91.016005,18.1397577 91.6714833,18.8723511 92.3076924,19.8748624 C92.9439014,20.8773736 93.4933465,22.1786909 93.956044,23.7788531 C94.4187415,25.3790153 94.5922505,27.2972533 94.4765761,29.5336246 Z M90.5436669,28.8395818 C90.582225,27.9141868 90.5533069,26.9791663 90.4569116,26.0344922 C90.3605163,25.0898181 90.2062861,24.2222733 89.9942164,23.4318317 C89.7821467,22.6413901 89.5218832,22.0051906 89.2134182,21.523214 C88.9049532,21.0412374 88.5964928,20.8002528 88.2880278,20.8002528 C87.9410047,20.877369 87.5554292,21.050878 87.1312898,21.3207848 C86.7842667,21.5521336 86.3986912,21.9184303 85.9745518,22.4196859 C85.5504124,22.9209416 85.1455582,23.6342562 84.7599769,24.5596512 C84.7214188,24.4439769 84.6828613,24.2319104 84.6443031,23.9234453 C84.605745,23.6535385 84.5768268,23.2968811 84.5575478,22.8534627 C84.5382687,22.4100442 84.5671869,21.8027629 84.6443031,21.0316003 C84.1044894,21.6870885 83.6899957,22.4582394 83.4008098,23.3450763 C83.1116238,24.2319132 82.8899179,25.0801793 82.7356854,25.8898999 C82.5814529,26.8538531 82.4657803,27.8177918 82.388664,28.7817449 C82.3501059,29.8228143 82.3983028,30.8445894 82.5332563,31.8471006 C82.6682097,32.8496119 82.899555,33.7364355 83.2272991,34.507598 C83.5550432,35.2787605 83.950258,35.8956813 84.4129555,36.3583788 C84.875653,36.8210763 85.4347375,37.0331428 86.0902256,36.9945847 C86.7457138,36.9560266 87.324077,36.6861238 87.8253326,36.1848681 C88.3265883,35.6836125 88.7700001,35.0474129 89.1555813,34.2762504 C89.5411626,33.5050879 89.849623,32.6375431 90.0809717,31.6735899 C90.3123205,30.7096368 90.4665507,29.7649769 90.5436669,28.8395818 Z M113.273569,21.7256431 C113.273569,22.2654569 113.128978,22.814902 112.839792,23.3739948 C112.550606,23.9330876 112.193949,24.4632539 111.769809,24.9645095 C111.34567,25.4657652 110.87334,25.8995376 110.352805,26.2658398 C109.83227,26.632142 109.340662,26.8538479 108.877964,26.9309641 C109.186429,25.7356622 109.282823,24.8102811 109.167149,24.1547929 C109.051474,23.4993048 108.858687,23.0173355 108.58878,22.7088704 C108.280315,22.3618473 107.894739,22.1690596 107.432042,22.1305014 C106.737995,22.1305014 106.072878,22.5257163 105.436669,23.3161579 C104.80046,24.1065995 104.251015,25.0705382 103.788317,26.2080029 C103.325619,27.3454676 102.959323,28.5600304 102.689416,29.8517276 C102.419509,31.1434248 102.284558,32.3097906 102.284558,33.35086 C102.245999,34.0834644 102.265278,34.7967791 102.342394,35.4908253 C102.380953,36.0691972 102.448428,36.6668392 102.544824,37.2837692 C102.641219,37.9006992 102.78581,38.3826686 102.9786,38.7296917 C102.747252,38.9224823 102.371316,39.1538276 101.850781,39.4237345 C101.330246,39.6936414 100.79044,39.8671504 100.231348,39.9442666 C99.6722548,40.0213829 99.1710067,39.924989 98.7275883,39.6550821 C98.2841698,39.3851752 98.0431851,38.806812 98.004627,37.9199751 C97.9275108,37.0716963 97.8793138,36.117397 97.8600348,35.0570486 C97.8407557,33.9967001 97.8407557,32.9363675 97.8600348,31.8760191 C97.8793138,30.8156706 97.908232,29.7649774 97.9467901,28.723908 C97.9853482,27.6828386 98.0431845,26.7188999 98.1203008,25.832063 C98.1974171,24.1355055 98.2359746,22.8245489 98.2359746,21.8991538 C98.2359746,20.9737588 98.2166958,20.0869352 98.1781377,19.2386565 C98.1781377,19.0844239 98.4384011,18.862718 98.9589359,18.5735321 C99.4794706,18.2843462 100.057834,18.0240827 100.694043,17.792734 C101.330252,17.5613852 101.918255,17.4264338 102.458068,17.3878757 C102.997882,17.3493175 103.267785,17.4649902 103.267785,17.7348971 C103.267785,18.1590364 103.219588,18.9976631 103.123193,20.2508022 C103.026797,21.5039413 102.901485,22.8052585 102.747253,24.1547929 C103.01716,23.4221885 103.373817,22.6317588 103.817235,21.78348 C104.260654,20.9352013 104.771541,20.1447715 105.349913,19.4121672 C105.928285,18.6795628 106.583763,18.0722814 107.316368,17.5903048 C108.048972,17.1083282 108.858681,16.8673436 109.745518,16.8673436 C110.439564,16.8673436 111.008288,17.0794101 111.451706,17.5035495 C111.895125,17.9276888 112.251782,18.4096582 112.521689,18.949472 C112.791596,19.4892857 112.984383,20.0290914 113.100058,20.5689052 C113.215732,21.1087189 113.273569,21.4942944 113.273569,21.7256431 Z M122.874494,40.1177773 C120.175425,40.1177773 118.093318,39.2116749 116.628109,37.399443 C115.1629,35.5872111 114.430307,33.2159219 114.430307,30.2855043 C114.430307,28.2419237 114.729128,26.3236857 115.326779,24.5307328 C115.924429,22.7377799 116.724499,21.1858386 117.72701,19.8748624 C118.729521,18.5638861 119.895887,17.5324717 121.226142,16.7805882 C122.556398,16.0287048 123.954109,15.6527687 125.419318,15.6527687 C126.845968,15.6527687 128.060531,16.1636562 129.063042,17.1854465 C130.065554,18.2072368 130.566802,19.6627843 130.566802,21.5521324 C130.566802,22.7859925 130.296899,24.0101946 129.757085,25.2247756 C129.217271,26.4393566 128.513596,27.5189679 127.646038,28.463642 C126.77848,29.4083161 125.824181,30.1698276 124.783112,30.7481995 C123.742042,31.3265714 122.739546,31.615753 121.775593,31.615753 C121.158663,31.615753 120.638136,31.5386379 120.213997,31.3844054 C119.789857,31.2301729 119.404282,30.9988276 119.057259,30.6903626 C119.172933,32.8881758 119.654902,34.4208383 120.503181,35.2883962 C121.35146,36.155954 122.45035,36.5897264 123.799884,36.5897264 C124.725279,36.5897264 125.544627,36.3969387 126.257953,36.0113574 C126.971278,35.6257762 127.578559,35.1823644 128.079815,34.6811087 C128.581071,34.1798531 128.985925,33.6689656 129.29439,33.1484309 C129.602855,32.6278962 129.814921,32.2326813 129.930596,31.9627744 C130.04627,31.7314257 130.248697,31.615753 130.537883,31.615753 C130.827069,31.615753 130.97166,31.8470983 130.97166,32.3097958 C130.97166,32.7339352 130.827069,33.3797741 130.537883,34.247332 C130.248697,35.1148898 129.776367,35.9824346 129.120879,36.8499925 C128.465391,37.7175503 127.626764,38.4790619 126.604974,39.13455 C125.583184,39.7900382 124.339703,40.1177773 122.874494,40.1177773 Z M125.534991,18.1397554 C125.303643,18.1397554 124.86987,18.38074 124.233661,18.8627166 C123.597452,19.3446932 122.922695,20.0483684 122.20937,20.9737634 C121.496044,21.8991585 120.840566,23.007688 120.242915,24.2993852 C119.645264,25.5910824 119.269328,27.0466298 119.115095,28.6660711 C121.428583,28.1262574 123.260067,27.2779913 124.609601,26.1212475 C125.959135,24.9645038 126.633892,23.2679717 126.633892,21.0316003 C126.633892,19.9134147 126.498941,19.1519031 126.229034,18.7470428 C125.959127,18.3421825 125.727782,18.1397554 125.534991,18.1397554 Z M150,21.7256431 C150,22.2654569 149.855409,22.814902 149.566223,23.3739948 C149.277037,23.9330876 148.92038,24.4632539 148.496241,24.9645095 C148.072101,25.4657652 147.599771,25.8995376 147.079237,26.2658398 C146.558702,26.632142 146.067093,26.8538479 145.604396,26.9309641 C145.912861,25.7356622 146.009254,24.8102811 145.89358,24.1547929 C145.777906,23.4993048 145.585118,23.0173355 145.315211,22.7088704 C145.006746,22.3618473 144.621171,22.1690596 144.158473,22.1305014 C143.464427,22.1305014 142.799309,22.5257163 142.1631,23.3161579 C141.526891,24.1065995 140.977446,25.0705382 140.514748,26.2080029 C140.052051,27.3454676 139.685754,28.5600304 139.415847,29.8517276 C139.14594,31.1434248 139.010989,32.3097906 139.010989,33.35086 C138.972431,34.0834644 138.99171,34.7967791 139.068826,35.4908253 C139.107384,36.0691972 139.17486,36.6668392 139.271255,37.2837692 C139.36765,37.9006992 139.512241,38.3826686 139.705032,38.7296917 C139.473683,38.9224823 139.097747,39.1538276 138.577212,39.4237345 C138.056678,39.6936414 137.516872,39.8671504 136.957779,39.9442666 C136.398686,40.0213829 135.897438,39.924989 135.45402,39.6550821 C135.010601,39.3851752 134.769617,38.806812 134.731058,37.9199751 C134.653942,37.0716963 134.605745,36.117397 134.586466,35.0570486 C134.567187,33.9967001 134.567187,32.9363675 134.586466,31.8760191 C134.605745,30.8156706 134.634663,29.7649774 134.673222,28.723908 C134.71178,27.6828386 134.769616,26.7188999 134.846732,25.832063 C134.923848,24.1355055 134.962406,22.8245489 134.962406,21.8991538 C134.962406,20.9737588 134.943127,20.0869352 134.904569,19.2386565 C134.904569,19.0844239 135.164833,18.862718 135.685367,18.5735321 C136.205902,18.2843462 136.784265,18.0240827 137.420474,17.792734 C138.056683,17.5613852 138.644686,17.4264338 139.1845,17.3878757 C139.724313,17.3493175 139.994216,17.4649902 139.994216,17.7348971 C139.994216,18.1590364 139.946019,18.9976631 139.849624,20.2508022 C139.753229,21.5039413 139.627917,22.8052585 139.473684,24.1547929 C139.743591,23.4221885 140.100248,22.6317588 140.543667,21.78348 C140.987085,20.9352013 141.497973,20.1447715 142.076345,19.4121672 C142.654717,18.6795628 143.310195,18.0722814 144.042799,17.5903048 C144.775404,17.1083282 145.585112,16.8673436 146.471949,16.8673436 C147.165995,16.8673436 147.734719,17.0794101 148.178138,17.5035495 C148.621556,17.9276888 148.978213,18.4096582 149.24812,18.949472 C149.518027,19.4892857 149.710815,20.0290914 149.826489,20.5689052 C149.942164,21.1087189 150,21.4942944 150,21.7256431 Z" id="Explorer"></path>
                        </g>
                    </g>
                </g>
            </g>
        </g>
    </g>
</svg>