<?xml version="1.0" encoding="UTF-8"?>
<svg width="10px" height="16px" viewBox="0 0 10 16" version="1.1" xmlns="http://www.w3.org/2000/svg" xmlns:xlink="http://www.w3.org/1999/xlink">
    <!-- Generator: Sketch 47.1 (45422) - http://www.bohemiancoding.com/sketch -->
    <title>icon</title>
    <desc>Created with Sketch.</desc>
    <defs></defs>
    <g id="Home" stroke="none" stroke-width="1" fill="none" fill-rule="evenodd">
        <g id="Home1_Large_A1_C" transform="translate(-47.000000, -2396.000000)" fill-rule="nonzero" fill="#42A5F5">
            <g id="Main" transform="translate(0.000000, 83.000000)">
                <g id="section" transform="translate(30.000000, 2122.000000)">
                    <g id="arrow" transform="translate(22.000000, 199.000000) rotate(-180.000000) translate(-22.000000, -199.000000) translate(0.000000, 177.000000)">
                        <g id="icon/arrow-down" transform="translate(22.000000, 22.000000) rotate(-90.000000) translate(-22.000000, -22.000000) translate(14.000000, 17.000000)">
                            <path d="M8,6.44436508 L2.77781746,1.22218254 C2.34824074,0.79260582 1.65175926,0.79260582 1.22218254,1.22218254 C0.79260582,1.65175926 0.79260582,2.34824074 1.22218254,2.77781746 L7.22218254,8.77781746 C7.65175926,9.20739418 8.34824074,9.20739418 8.77781746,8.77781746 L14.7778175,2.77781746 C15.2073942,2.34824074 15.2073942,1.65175926 14.7778175,1.22218254 C14.3482407,0.79260582 13.6517593,0.79260582 13.2221825,1.22218254 L8,6.44436508 Z" id="icon"></path>
                        </g>
                    </g>
                </g>
            </g>
        </g>
    </g>
</svg>