<?xml version="1.0" encoding="UTF-8"?>
<svg width="14px" height="14px" viewBox="0 0 14 14" version="1.1" xmlns="http://www.w3.org/2000/svg" xmlns:xlink="http://www.w3.org/1999/xlink">
    <!-- Generator: Sketch 47.1 (45422) - http://www.bohemiancoding.com/sketch -->
    <title>Fill 33</title>
    <desc>Created with Sketch.</desc>
    <defs></defs>
    <g id="Blog" stroke="none" stroke-width="1" fill="none" fill-rule="evenodd">
        <g id="blog_Large_1A_C" transform="translate(-367.000000, -3206.000000)" fill="#FFFFFF">
            <g id="Main" transform="translate(200.000000, 295.000000)">
                <g id="article">
                    <g id="footer" transform="translate(109.000000, 2907.000000)">
                        <g id="list">
                            <g id="icon" transform="translate(54.000000, 0.000000)">
                                <g transform="translate(4.000000, 4.000000)" id="Fill-33">
                                    <path d="M12.1147261,2.50910139 C12.1147261,2.97107342 11.7407176,3.34546852 11.2792226,3.34546852 L10.4437191,3.34546852 C9.98237269,3.34546852 9.60821566,2.97107342 9.60821566,2.50910139 L9.60821566,2.09084348 C9.60821566,1.62902014 9.98237269,1.25462504 10.4437191,1.25462504 L11.2792226,1.25462504 C11.7407176,1.25462504 12.1147261,1.62902014 12.1147261,2.09084348 L12.1147261,2.50910139 Z M10.8613966,0 L3.34186535,0 L3.34186535,4.18183565 L4.37818673,4.18183565 C4.98539352,3.62232463 5.79356674,3.27781572 6.68387924,3.27781572 C7.57434028,3.27781572 8.3825135,3.62232463 8.98986883,4.18183565 L12.5325521,4.18183565 L12.5325521,10.8727727 C12.5325521,11.7967168 11.7843866,12.545507 10.8613966,12.545507 L2.50636188,12.545507 C1.58352045,12.545507 0.835503472,11.7967168 0.835503472,10.8727727 L0.835503472,4.60009356 L0.835503472,4.18183565 L0.835503472,0.642627332 C0.323804012,1.10207168 0,1.76685344 0,2.50910139 L0,10.8727727 C0,12.2585401 1.122174,13.3818741 2.50636188,13.3818741 L10.8613966,13.3818741 C12.245733,13.3818741 13.3680556,12.2585401 13.3680556,10.8727727 L13.3680556,4.18183565 L13.3680556,2.9273593 L13.3680556,2.50910139 C13.3680556,1.12333399 12.245733,0 10.8613966,0 L10.8613966,0 Z M2.36328125,4.18183565 L2.36328125,0 C2.0699267,0 1.7894946,0.0530814339 1.52777778,0.14571374 L1.52777778,4.18183565 L2.36328125,4.18183565 Z M5.04892361,7.13049872 C5.04892361,6.19242935 5.80867477,5.43189284 6.74577546,5.43189284 C7.68287616,5.43189284 8.44262731,6.19242935 8.44262731,7.13049872 C8.44262731,8.0685681 7.68287616,8.82910461 6.74577546,8.82910461 C5.80867477,8.82910461 5.04892361,8.0685681 5.04892361,7.13049872 L5.04892361,7.13049872 Z M9.29016204,7.13049872 C9.29016204,5.72376638 8.15105517,4.58333333 6.74577546,4.58333333 C5.34049576,4.58333333 4.20138889,5.72376638 4.20138889,7.13049872 C4.20138889,8.53723107 5.34049576,9.67751543 6.74577546,9.67751543 C8.15105517,9.67751543 9.29016204,8.53723107 9.29016204,7.13049872 L9.29016204,7.13049872 Z"></path>
                                </g>
                            </g>
                        </g>
                    </g>
                </g>
            </g>
        </g>
    </g>
</svg>