<?xml version="1.0" encoding="UTF-8"?>
<svg width="13px" height="11px" viewBox="0 0 13 11" version="1.1" xmlns="http://www.w3.org/2000/svg" xmlns:xlink="http://www.w3.org/1999/xlink">
    <!-- Generator: Sketch 47.1 (45422) - http://www.bohemiancoding.com/sketch -->
    <title>icon</title>
    <desc>Created with Sketch.</desc>
    <defs></defs>
    <g id="Blog" stroke="none" stroke-width="1" fill="none" fill-rule="evenodd">
        <g id="blog_Large_1A_C" transform="translate(-341.000000, -3208.000000)" fill="#FFFFFF">
            <g id="Main" transform="translate(200.000000, 295.000000)">
                <g id="article">
                    <g id="footer" transform="translate(109.000000, 2907.000000)">
                        <g id="list">
                            <g id="icon" transform="translate(27.000000, 0.000000)">
                                <path d="M17.16285,6.22576346 C16.7990968,6.45876026 15.963925,6.7973359 15.5520423,6.7973359 L15.5520423,6.79803141 C15.0817365,6.30672115 14.4196083,6 13.6852859,6 C12.2590673,6 11.1025686,7.15649872 11.1025686,8.5821609 C11.1025686,8.78024295 11.1255205,8.97345641 11.1679468,9.15874103 L11.1675295,9.15874103 C9.23289103,9.10796859 7.11700192,8.13828462 5.84323974,6.47865192 C5.06009231,7.83420641 5.7378,9.3418 6.62652628,9.89111603 C6.32230897,9.91406795 5.76228205,9.85606218 5.49868269,9.59886154 C5.48101667,10.4985769 5.91362564,11.6906859 7.49104872,12.1231558 C7.18724872,12.2866013 6.64947821,12.2397237 6.41564679,12.2049481 C6.49771731,12.9644481 7.56129551,13.9573622 8.72433205,13.9573622 C8.30980641,14.4368487 6.75018846,15.3065179 5,15.0298429 C6.18863141,15.7530372 7.57395385,16.171875 9.04023397,16.171875 C13.2070513,16.171875 16.4429942,12.7948821 16.2688378,8.62889936 C16.2681423,8.62430897 16.2681423,8.61971859 16.267725,8.6147109 C16.2681423,8.604 16.2688378,8.5932891 16.2688378,8.5821609 C16.2688378,8.56922436 16.267725,8.55698333 16.2673077,8.5444641 C16.6466404,8.28503782 17.1556167,7.82613846 17.5192308,7.22215513 C17.3083513,7.33830577 16.6757128,7.57088526 16.0870308,7.62861282 C16.4648333,7.42468846 17.0245821,6.75685705 17.16285,6.22576346"></path>
                            </g>
                        </g>
                    </g>
                </g>
            </g>
        </g>
    </g>
</svg>